<mxfile host="app.diagrams.net" agent="Mozilla/5.0 (Macintosh; Intel Mac OS X 10_15_7) AppleWebKit/537.36 (KHTML, like Gecko) Chrome/135.0.0.0 Safari/537.36" version="26.2.14">
  <diagram name="Page-1" id="rrsSWU4voBvuClBvTGbi">
    <mxGraphModel dx="976" dy="565" grid="1" gridSize="10" guides="1" tooltips="1" connect="1" arrows="1" fold="1" page="1" pageScale="1" pageWidth="850" pageHeight="1100" math="0" shadow="0">
      <root>
        <mxCell id="0" />
        <mxCell id="1" parent="0" />
        <mxCell id="IxJ8p4QSfwwbGdULn4AV-7" style="edgeStyle=orthogonalEdgeStyle;rounded=0;orthogonalLoop=1;jettySize=auto;html=1;exitX=1;exitY=0.5;exitDx=0;exitDy=0;entryX=0;entryY=0.5;entryDx=0;entryDy=0;" edge="1" parent="1" source="IxJ8p4QSfwwbGdULn4AV-1" target="IxJ8p4QSfwwbGdULn4AV-2">
          <mxGeometry relative="1" as="geometry" />
        </mxCell>
        <mxCell id="IxJ8p4QSfwwbGdULn4AV-1" value="User" style="rounded=1;whiteSpace=wrap;html=1;" vertex="1" parent="1">
          <mxGeometry x="120" y="80" width="80" height="40" as="geometry" />
        </mxCell>
        <mxCell id="IxJ8p4QSfwwbGdULn4AV-8" style="edgeStyle=orthogonalEdgeStyle;rounded=0;orthogonalLoop=1;jettySize=auto;html=1;exitX=1;exitY=0.5;exitDx=0;exitDy=0;" edge="1" parent="1" source="IxJ8p4QSfwwbGdULn4AV-2" target="IxJ8p4QSfwwbGdULn4AV-3">
          <mxGeometry relative="1" as="geometry" />
        </mxCell>
        <mxCell id="IxJ8p4QSfwwbGdULn4AV-12" style="edgeStyle=orthogonalEdgeStyle;rounded=0;orthogonalLoop=1;jettySize=auto;html=1;exitX=0;exitY=0.5;exitDx=0;exitDy=0;" edge="1" parent="1" source="IxJ8p4QSfwwbGdULn4AV-2">
          <mxGeometry relative="1" as="geometry">
            <mxPoint x="200" y="100" as="targetPoint" />
          </mxGeometry>
        </mxCell>
        <mxCell id="IxJ8p4QSfwwbGdULn4AV-2" value="API inference" style="rounded=1;whiteSpace=wrap;html=1;" vertex="1" parent="1">
          <mxGeometry x="280" y="80" width="80" height="40" as="geometry" />
        </mxCell>
        <mxCell id="IxJ8p4QSfwwbGdULn4AV-3" value="DB" style="rounded=1;whiteSpace=wrap;html=1;" vertex="1" parent="1">
          <mxGeometry x="440" y="80" width="80" height="40" as="geometry" />
        </mxCell>
        <mxCell id="IxJ8p4QSfwwbGdULn4AV-9" style="edgeStyle=orthogonalEdgeStyle;rounded=0;orthogonalLoop=1;jettySize=auto;html=1;exitX=0.5;exitY=0;exitDx=0;exitDy=0;entryX=0.5;entryY=1;entryDx=0;entryDy=0;" edge="1" parent="1" source="IxJ8p4QSfwwbGdULn4AV-4" target="IxJ8p4QSfwwbGdULn4AV-2">
          <mxGeometry relative="1" as="geometry" />
        </mxCell>
        <mxCell id="IxJ8p4QSfwwbGdULn4AV-4" value="Model" style="rounded=1;whiteSpace=wrap;html=1;" vertex="1" parent="1">
          <mxGeometry x="280" y="200" width="80" height="40" as="geometry" />
        </mxCell>
        <mxCell id="IxJ8p4QSfwwbGdULn4AV-10" style="edgeStyle=orthogonalEdgeStyle;rounded=0;orthogonalLoop=1;jettySize=auto;html=1;exitX=0.5;exitY=0;exitDx=0;exitDy=0;entryX=0.5;entryY=1;entryDx=0;entryDy=0;" edge="1" parent="1" source="IxJ8p4QSfwwbGdULn4AV-5" target="IxJ8p4QSfwwbGdULn4AV-4">
          <mxGeometry relative="1" as="geometry" />
        </mxCell>
        <mxCell id="IxJ8p4QSfwwbGdULn4AV-5" value="Model training" style="rounded=1;whiteSpace=wrap;html=1;" vertex="1" parent="1">
          <mxGeometry x="280" y="320" width="80" height="40" as="geometry" />
        </mxCell>
        <mxCell id="IxJ8p4QSfwwbGdULn4AV-11" style="edgeStyle=orthogonalEdgeStyle;rounded=0;orthogonalLoop=1;jettySize=auto;html=1;exitX=1;exitY=0.5;exitDx=0;exitDy=0;entryX=0;entryY=0.5;entryDx=0;entryDy=0;" edge="1" parent="1" source="IxJ8p4QSfwwbGdULn4AV-6" target="IxJ8p4QSfwwbGdULn4AV-5">
          <mxGeometry relative="1" as="geometry" />
        </mxCell>
        <mxCell id="IxJ8p4QSfwwbGdULn4AV-6" value="DataLake" style="rounded=1;whiteSpace=wrap;html=1;" vertex="1" parent="1">
          <mxGeometry x="120" y="320" width="80" height="40" as="geometry" />
        </mxCell>
      </root>
    </mxGraphModel>
  </diagram>
</mxfile>
